<svg width="132.054" height="945.166" viewBox="0 0 34.939 250.075" xmlns="http://www.w3.org/2000/svg"><path d="M3.488 16.459C5.997-.704 21.424-5.476 28.695 8.662c5.362 10.426 3.721 21.81-6.272 43.514-7.582 16.47-10.149 22.928-11.766 29.599-.766 3.162-.757 3.194.544 1.887 9.58-9.629 21.424 7.826 13.42 19.777-3.93 5.868-9.756 4.115-10.032-3.017-.195-5.041 2.815-9.2 4.624-6.387.61.95.645 1.437.039.55-1.465-2.138-3.786.666-3.8 4.59-.018 5.675 4.212 7.607 7.524 3.436 7.13-8.979-1.636-24.433-10.317-18.189-3.049 2.193-3.513 3.455-4.035 10.981-.604 8.71 2.687 20.343 7.192 25.414l1.534 1.73c.288.327.126.28-.453-.13-5.863-4.15-9.993-15.384-9.992-27.177 0-12.502 2.588-21.932 11.57-42.17 7.119-16.036 8.75-20.679 9.635-27.405C30.77 5.429 12.923-4.026 6.7 14.32c-3.114 9.184.793 21.218 7.749 23.865 5.988 2.279 10.815-5.882 6.633-11.214-.395-.503-.447-.653-.152-.437 4.25 3.113 1.955 12.524-3.362 13.788C9.404 42.264 1.64 29.104 3.488 16.46zm.224 208.408c2.171-12.59 12.758-19.911 17.909-12.386 2.162 3.16 2.2 7.768.085 10.369-1.043 1.282-1.18 1.035-.212-.38 4.576-6.686-2.662-14.104-9.142-9.368-13.35 9.758-3.982 40.098 9.495 30.747 9.854-6.837 9.066-19.553-2.856-46.129-8.253-18.395-11.003-27.366-11.835-38.6-1.003-13.553 2.865-25.89 9.914-31.622 1.32-1.073 1.394-.863.112.317-6.26 5.762-9.568 18.943-7.975 31.787 1.246 10.055 13.444 9.46 16.067-.783 2.283-8.914-5.63-18.725-9.099-11.28-1.858 3.988 1.298 11.33 3.284 7.641.255-.474.464-.687.464-.475 0 3.299-3.821 2.215-4.812-1.365-2.472-8.932 4.903-14.036 9.725-6.73 8.172 12.382-4.98 30.22-14.055 19.064-.857-1.053-.856-1.168-.008 2.355 1.613 6.699 3.69 12.02 10.377 26.586 12.275 26.735 13.737 38.093 6.295 48.89-9.965 14.459-27.118.988-23.733-18.638z" fill="#3f2d29"/></svg>