<?xml version="1.0" encoding="UTF-8" standalone="no"?>
<!-- Created with Inkscape (http://www.inkscape.org/) -->

<svg
   width="34.939301mm"
   height="250.07527mm"
   viewBox="0 0 34.9393 250.07527"
   version="1.1"
   id="svg5"
   xml:space="preserve"
   xmlns="http://www.w3.org/2000/svg"
   xmlns:svg="http://www.w3.org/2000/svg"><defs
     id="defs2" /><g
     id="layer1"
     transform="translate(-201.94782,-101.56768)"><path
       style="fill:#3f2d29;fill-opacity:1;stroke-width:0.270445"
       d="m 205.43598,118.02628 c 2.50879,-17.16303 17.93543,-21.934707 25.20653,-7.79673 5.362,10.42585 3.72136,21.80962 -6.27132,43.51454 -7.58205,16.46885 -10.14941,22.92716 -11.76617,29.59837 -0.76639,3.16238 -0.75724,3.19417 0.54346,1.88697 9.58071,-9.6285 21.42478,7.82609 13.42033,19.77753 -3.9298,5.86756 -9.75594,4.11498 -10.03181,-3.01771 -0.19495,-5.04072 2.81525,-9.19889 4.62353,-6.38675 0.61082,0.94993 0.64528,1.43678 0.039,0.55099 -1.46423,-2.13924 -3.78577,0.66521 -3.79876,4.58895 -0.0188,5.67503 4.21079,7.60682 7.52296,3.43597 7.12997,-8.9784 -1.63569,-24.43251 -10.31672,-18.1887 -3.04899,2.19296 -3.5128,3.45515 -4.03516,10.98101 -0.60449,8.70932 2.68742,20.34248 7.1915,25.41373 0.59775,0.67305 1.28821,1.45193 1.53433,1.73084 0.28798,0.32634 0.12639,0.27979 -0.45325,-0.13056 -5.8628,-4.15062 -9.99268,-15.38367 -9.9919,-27.17745 8.5e-4,-12.5018 2.58834,-21.93176 11.57087,-42.16908 7.11817,-16.03691 8.75026,-20.67956 9.63443,-27.40596 2.6599,-20.23543 -15.18667,-29.690867 -21.40958,-11.34319 -3.1147,9.18339 0.79272,21.21781 7.74858,23.86481 5.98805,2.2787 10.81466,-5.88176 6.63288,-11.21434 -0.39468,-0.50328 -0.44665,-0.65253 -0.15207,-0.43674 4.24973,3.11301 1.95524,12.52366 -3.36175,13.78796 -8.16399,1.94125 -15.92835,-11.2188 -14.07989,-23.86446 z m 0.22358,208.40818 c 2.17123,-12.58939 12.75823,-19.91107 17.90921,-12.3855 2.16222,3.15898 2.19983,7.76819 0.0846,10.36854 -1.04271,1.28185 -1.18005,1.03561 -0.21157,-0.37935 4.57647,-6.68621 -2.66236,-14.10433 -9.14194,-9.36837 -13.35085,9.75822 -3.98213,40.09763 9.49462,30.74714 9.85406,-6.83699 9.06675,-19.55323 -2.85605,-46.129 -8.25271,-18.39518 -11.00308,-27.366 -11.83475,-38.6011 -1.00315,-13.55172 2.86526,-25.88966 9.91432,-31.62087 1.32019,-1.07338 1.39432,-0.86348 0.11186,0.31682 -6.26093,5.76222 -9.56772,18.94241 -7.97517,31.78737 1.24661,10.05458 13.44379,9.45992 16.067,-0.78333 2.28288,-8.91429 -5.63054,-18.725 -9.09868,-11.28014 -1.85796,3.9884 1.29759,11.33071 3.28402,7.64121 0.25505,-0.47373 0.46373,-0.68769 0.46373,-0.47548 0,3.29897 -3.82126,2.21561 -4.81193,-1.36423 -2.47187,-8.93224 4.9031,-14.03625 9.72494,-6.73035 8.17173,12.38157 -4.97969,30.22008 -14.0547,19.06373 -0.85677,-1.05326 -0.85637,-1.16788 -0.008,2.35487 1.61302,6.69888 3.69045,12.02117 10.37717,26.58603 12.27433,26.73562 13.73655,38.09289 6.29455,48.89068 -9.96487,14.45832 -27.1179,0.98728 -23.73311,-18.63867 z"
       id="path302" /></g></svg>
